<?xml version="1.0" standalone="no"?>
<!DOCTYPE svg PUBLIC "-//W3C//DTD SVG 20010904//EN"
 "http://www.w3.org/TR/2001/REC-SVG-20010904/DTD/svg10.dtd">
<svg version="1.0" xmlns="http://www.w3.org/2000/svg"
 width="300.000000pt" height="300.000000pt" viewBox="0 0 300.000000 300.000000"
 preserveAspectRatio="xMidYMid meet">
<metadata>
Created by potrace 1.11, written by Peter Selinger 2001-2013
</metadata>
<g transform="translate(0.000000,300.000000) scale(0.100000,-0.100000)"
fill="#000000" stroke="none">
<path d="M1116 2970 c-15 -16 -48 -39 -72 -51 -24 -11 -44 -22 -44 -23 0 -7
530 5 799 18 31 1 35 4 37 34 l2 32 -176 0 c-97 -1 -193 1 -212 4 -19 3 -96 7
-170 10 l-135 5 -29 -29z"/>
<path d="M1914 2908 c4 -13 11 -43 16 -68 24 -120 103 -394 186 -650 45 -137
44 -134 50 -128 2 3 0 16 -5 30 -9 24 -61 260 -67 303 -1 11 -14 88 -28 170
-15 83 -28 164 -31 180 -6 34 -17 96 -20 108 -2 4 -3 11 -4 16 -1 8 -86 61
-98 61 -3 0 -2 -10 1 -22z"/>
<path d="M1088 2860 c-25 -6 -18 20 -108 -372 -28 -120 -52 -223 -55 -230 -2
-7 -6 -24 -9 -38 -2 -14 -18 -81 -35 -150 -16 -69 -32 -136 -35 -150 -2 -14
-18 -81 -35 -150 -17 -69 -33 -134 -35 -145 -5 -24 -110 -474 -132 -563 -9
-35 -17 -68 -18 -75 -3 -12 -19 -86 -22 -99 -1 -5 -2 -9 -3 -10 -2 -2 -5 -14
-7 -27 -2 -14 -12 -52 -20 -85 -9 -34 -18 -71 -20 -84 -3 -12 -14 -62 -25
-110 -12 -48 -22 -94 -24 -102 -9 -41 -66 -279 -74 -308 l-10 -34 305 4 c167
2 304 1 304 -2 -1 -19 -23 -29 -75 -34 -169 -18 -253 -23 -399 -25 -55 0 -97
-3 -94 -6 9 -9 486 -21 615 -16 20 1 21 5 17 47 -5 38 -3 45 11 42 15 -3 17
19 20 235 2 219 4 239 21 252 11 8 22 15 26 15 12 0 55 -94 52 -113 -1 -10 1
-15 5 -13 4 3 16 -14 26 -37 10 -23 38 -87 62 -142 25 -55 54 -121 66 -147 18
-42 25 -48 51 -49 17 -1 53 -2 80 -3 26 -1 54 3 61 9 7 5 54 106 105 223 93
212 127 270 75 127 -31 -83 -30 -110 0 -40 20 45 31 56 32 33 0 -15 13 -121
20 -158 2 -14 6 -88 8 -164 3 -76 6 -140 8 -142 3 -4 240 -13 440 -18 120 -3
282 15 322 37 21 11 26 17 15 20 -61 20 -133 25 -374 24 -215 -1 -278 2 -290
13 -35 28 -24 29 306 29 l248 1 -7 32 c-3 18 -25 114 -47 213 -39 169 -45 220
-27 213 5 -2 27 -25 50 -51 22 -27 41 -45 41 -40 0 4 -11 53 -24 108 -13 55
-38 170 -56 255 -18 85 -39 178 -46 205 l-13 50 5 -60 c3 -33 8 -79 10 -102 2
-23 5 -115 7 -205 4 -150 4 -158 -8 -103 -17 80 -47 215 -80 355 -14 63 -28
124 -30 135 -3 11 -12 54 -21 95 -9 41 -17 80 -19 85 -1 6 -5 21 -8 35 -8 33
-52 229 -78 350 -11 52 -22 102 -24 110 -5 19 -104 459 -109 480 -1 8 -6 26
-9 40 -7 28 -63 282 -71 320 -3 14 -12 52 -20 86 -8 34 -17 73 -20 89 -3 15
-7 30 -10 32 -7 7 -759 9 -788 3z m401 -597 c6 -38 11 -70 11 -73 -1 -3 3 -18
9 -33 9 -24 25 -89 56 -230 2 -9 7 -22 11 -29 4 -6 3 -8 -3 -5 -6 4 -18 28
-28 54 -28 76 -36 72 -15 -8 11 -41 33 -135 49 -209 25 -112 30 -127 30 -86 1
27 4 47 7 44 6 -7 104 -426 104 -448 0 -10 -504 -2 -508 8 -1 5 13 74 32 153
28 121 45 192 51 219 1 3 4 14 8 25 3 11 9 31 11 45 3 14 10 45 17 70 6 25 12
52 14 60 12 54 29 126 65 274 42 174 48 202 49 224 1 6 5 12 9 12 5 0 14 -30
21 -67z m129 -521 c-3 -22 -6 -17 -15 23 -7 28 -14 59 -17 70 -4 11 3 1 14
-23 12 -24 20 -55 18 -70z m-131 -959 c-12 -12 -185 -15 -192 -4 -4 8 27 11
96 11 56 0 99 -3 96 -7z m82 -5 c11 -10 13 -10 7 0 -5 8 0 12 16 12 18 0 20
-2 8 -10 -12 -8 -11 -10 8 -10 27 0 27 -2 -1 -48 -47 -74 -109 -263 -92 -280
3 -3 5 0 5 6 0 7 23 69 50 139 46 118 83 183 95 171 5 -4 -52 -132 -158 -362
l-23 -49 -73 169 c-41 93 -78 174 -83 181 -7 8 1 17 24 29 41 22 138 45 151
37 6 -4 8 1 4 10 -5 13 0 17 21 17 16 0 34 -6 41 -12z m-424 -49 c8 -23 -2
-86 -13 -93 -4 -3 -8 22 -7 55 0 60 8 76 20 38z m703 -37 c2 -9 5 -87 7 -172
3 -145 -2 -162 -20 -70 -3 14 -11 49 -19 77 -8 29 -12 63 -10 75 2 13 2 17 -2
11 -3 -7 -9 -13 -14 -13 -5 0 3 27 17 60 26 60 33 65 41 32z"/>
<path d="M1436 2074 c-8 -20 -8 -24 2 -24 4 0 8 9 9 20 2 24 -3 26 -11 4z"/>
<path d="M1426 2023 c-3 -10 -7 -29 -10 -43 -2 -14 -14 -63 -25 -110 -11 -47
-22 -96 -24 -110 -3 -14 -10 -45 -17 -70 -13 -47 -18 -68 -26 -110 -3 -14 -11
-50 -19 -80 -8 -30 -16 -66 -18 -80 -3 -14 -9 -43 -15 -65 -5 -22 -13 -52 -16
-66 l-6 -27 160 1 c148 1 160 2 160 19 0 21 10 19 -150 21 -103 2 -124 5 -122
16 7 33 24 118 27 141 2 14 7 36 10 50 3 14 7 36 10 50 3 14 7 36 10 50 26
131 35 179 40 205 3 17 14 73 25 125 10 52 18 96 16 98 -2 2 -7 -5 -10 -15z"/>
<path d="M1619 1435 c-7 -35 -3 -155 6 -155 14 1 46 26 39 32 -3 3 -13 34 -24
69 -10 35 -19 60 -21 54z"/>
<path d="M1370 665 c0 -3 18 -44 40 -91 22 -47 40 -91 40 -97 0 -8 3 -8 11 0
7 7 4 20 -10 44 -11 19 -28 54 -37 79 -16 40 -44 82 -44 65z"/>
<path d="M968 2795 c-24 -22 -41 -64 -54 -130 -6 -31 -5 -28 -138 -550 -69
-269 -128 -501 -130 -515 -3 -14 -10 -43 -16 -65 -6 -22 -13 -51 -16 -65 -3
-14 -12 -52 -21 -85 -16 -62 -20 -80 -29 -129 -2 -16 -7 -33 -10 -37 -3 -5 -7
-21 -8 -36 -2 -16 -13 -64 -24 -108 -12 -44 -33 -136 -47 -205 -44 -204 -53
-244 -60 -262 -4 -11 -3 -18 4 -18 6 0 11 6 11 14 0 16 110 429 116 435 7 7 4
-23 -6 -59 -5 -19 -11 -46 -14 -60 -20 -107 -134 -559 -153 -610 -3 -8 -7 -22
-9 -30 -2 -8 -7 -23 -12 -35 -13 -28 -46 -99 -49 -105 -2 -3 13 -22 32 -43 22
-24 37 -33 39 -25 5 15 42 204 51 258 3 19 11 55 16 80 6 25 12 57 14 72 2 15
6 35 9 45 3 10 7 36 11 57 3 21 7 48 10 60 3 12 7 32 9 46 3 14 18 90 34 170
39 189 40 196 24 192 -8 -1 -11 2 -7 8 3 6 10 8 15 5 4 -3 13 26 20 63 19 99
22 117 40 182 7 25 14 52 16 60 2 8 10 40 18 70 8 30 35 134 61 230 25 96 48
182 50 190 2 8 8 38 15 65 6 28 16 61 21 75 4 14 11 36 13 50 3 14 9 40 15 58
5 17 8 32 5 32 -3 0 0 8 5 18 5 9 12 31 15 47 3 17 12 57 21 90 8 33 17 69 20
80 4 21 34 140 40 165 45 170 71 280 66 280 -3 0 -18 -11 -33 -25z"/>
<path d="M856 2668 c-13 -21 -90 -242 -101 -293 -2 -11 -16 -63 -30 -115 -14
-52 -27 -106 -30 -120 -3 -14 -7 -36 -10 -50 -13 -56 -24 -106 -29 -130 -3
-14 -8 -38 -11 -55 -9 -65 -67 -353 -80 -402 -7 -29 -10 -53 -5 -53 5 0 11 8
13 18 12 42 60 228 61 237 1 6 5 16 9 23 5 6 6 12 3 12 -3 0 -1 11 4 25 5 14
12 36 14 48 2 12 12 49 21 82 9 33 18 71 21 85 3 14 9 39 14 55 5 17 11 41 14
55 2 14 12 52 21 85 9 33 18 67 20 75 2 8 17 74 35 145 17 72 33 139 36 150 2
11 10 47 18 80 16 67 14 77 -8 43z"/>
<path d="M2168 1948 c-21 -10 -38 -19 -38 -21 0 -1 25 -75 56 -162 30 -88 67
-195 81 -238 13 -44 26 -77 29 -75 2 2 -1 20 -6 39 -10 34 -24 111 -36 204 -3
28 -8 52 -9 55 -4 6 -10 52 -21 140 -8 75 -12 79 -56 58z"/>
<path d="M553 1425 c-3 -9 -3 -18 -1 -21 3 -3 8 4 11 16 6 23 -1 27 -10 5z"/>
<path d="M2313 1345 c0 -8 4 -12 9 -9 5 3 6 10 3 15 -9 13 -12 11 -12 -6z"/>
<path d="M1240 457 c0 -9 35 -113 67 -202 28 -74 37 -87 60 -78 12 5 12 8 0
22 -18 20 -80 151 -98 206 -12 38 -29 68 -29 52z"/>
<path d="M1133 267 c2 -127 4 -143 18 -140 12 3 16 14 14 36 -2 18 -7 70 -11
117 -4 47 -7 95 -7 108 1 12 -3 22 -7 22 -5 0 -7 -65 -7 -143z"/>
<path d="M2506 360 c5 -48 32 -142 65 -226 17 -43 26 -53 51 -58 58 -11 58 -8
11 72 -42 68 -88 158 -121 232 -9 22 -10 19 -6 -20z"/>
<path d="M1704 358 c-33 -61 -53 -108 -46 -108 17 0 79 126 68 138 -3 2 -13
-11 -22 -30z"/>
<path d="M1620 199 c-21 -29 -22 -48 -2 -35 10 6 34 66 27 66 -2 0 -13 -14
-25 -31z"/>
<path d="M1348 139 c-7 -5 -11 -9 -8 -10 3 0 17 -2 32 -4 16 -2 37 -6 48 -10
11 -3 20 -2 20 2 0 13 -77 31 -92 22z"/>
</g>
</svg>
